<svg id="svg" version="1.1" xmlns="http://www.w3.org/2000/svg" xmlns:xlink="http://www.w3.org/1999/xlink" width="400" height="400" viewBox="0, 0, 400,400"><g id="svgg"><path id="path0" d="M162.926 13.705 C 149.506 16.372,141.004 29.341,143.996 42.582 L 144.395 44.344 133.161 55.578 L 121.926 66.813 120.144 66.369 C 111.849 64.303,101.457 67.923,96.126 74.736 C 87.350 85.952,90.057 102.836,101.789 110.056 L 103.642 111.196 103.640 127.063 L 103.637 142.930 102.019 143.876 C 98.689 145.823,95.232 149.629,93.348 153.423 C 84.333 171.576,100.145 191.806,120.111 187.665 L 122.117 187.249 133.253 198.385 L 144.390 209.521 143.917 211.543 C 141.039 223.851,148.629 236.468,160.982 239.910 C 171.040 242.712,182.542 238.338,187.716 229.742 L 188.740 228.041 204.607 228.043 L 220.473 228.044 221.608 229.865 C 228.917 241.603,245.242 244.393,256.430 235.817 C 263.989 230.024,267.415 220.116,265.080 210.801 L 264.773 209.574 275.892 198.440 C 285.633 188.686,287.092 187.321,287.652 187.429 C 293.047 188.468,296.019 188.534,299.680 187.696 C 317.679 183.577,324.441 161.525,311.918 147.787 C 310.521 146.255,306.997 143.478,306.080 143.187 C 305.573 143.026,305.566 142.820,305.570 127.110 L 305.573 111.196 307.545 109.917 C 329.647 95.578,314.846 60.592,289.151 66.437 L 287.326 66.852 276.081 55.607 L 264.836 44.362 265.216 42.463 C 267.610 30.473,261.509 19.195,250.282 14.858 C 239.757 10.791,227.069 15.090,221.344 24.663 L 220.482 26.104 204.611 26.101 L 188.740 26.099 187.628 24.298 C 182.691 16.295,172.305 11.841,162.926 13.705 M218.109 33.077 C 217.088 38.773,218.562 46.092,221.628 50.548 C 222.079 51.204,222.350 51.835,222.229 51.950 C 221.950 52.214,204.973 59.203,204.616 59.201 C 204.269 59.199,187.274 52.191,186.976 51.927 C 186.848 51.814,187.094 51.185,187.536 50.495 C 190.654 45.624,192.231 37.832,191.113 32.821 L 190.928 31.990 204.616 31.990 L 218.304 31.990 218.109 33.077 M147.769 51.194 C 150.929 55.969,157.225 60.009,163.084 61.022 C 164.300 61.232,164.600 60.192,160.382 70.365 L 156.726 79.182 147.831 82.870 C 142.939 84.899,138.887 86.509,138.826 86.448 C 138.764 86.387,138.437 85.243,138.098 83.907 C 136.732 78.522,132.975 73.019,128.774 70.248 L 127.669 69.519 137.345 59.839 C 142.668 54.516,147.036 50.160,147.054 50.160 C 147.071 50.160,147.393 50.625,147.769 51.194 M271.862 59.834 L 281.534 69.508 280.123 70.480 C 275.888 73.397,272.269 78.808,270.947 84.199 C 270.637 85.465,270.319 86.500,270.241 86.500 C 270.163 86.500,266.135 84.852,261.291 82.837 L 252.484 79.174 248.830 70.361 C 246.820 65.514,245.174 61.478,245.172 61.391 C 245.171 61.304,246.004 61.034,247.025 60.790 C 252.870 59.393,258.482 55.669,261.408 51.247 C 261.804 50.649,262.142 50.160,262.159 50.160 C 262.177 50.160,266.543 54.513,271.862 59.834 M189.763 59.508 C 193.423 61.020,196.503 62.333,196.608 62.426 C 196.745 62.548,186.929 66.766,183.011 68.269 C 182.608 68.424,178.783 58.556,179.163 58.343 C 179.366 58.229,180.107 57.744,180.809 57.265 C 181.717 56.645,182.234 56.446,182.598 56.576 C 182.879 56.676,186.104 57.995,189.763 59.508 M228.518 57.364 C 229.231 57.807,229.814 58.196,229.814 58.228 C 229.814 58.863,225.691 67.927,225.429 67.868 C 224.559 67.673,212.452 62.575,212.572 62.454 C 212.834 62.192,226.365 56.603,226.790 56.580 C 227.027 56.568,227.805 56.921,228.518 57.364 M236.718 60.796 C 237.771 61.016,238.664 61.227,238.702 61.265 C 238.945 61.508,244.656 75.583,244.553 75.686 C 244.385 75.854,230.854 70.304,230.845 70.064 C 230.839 69.900,234.703 60.396,234.776 60.397 C 234.792 60.397,235.666 60.577,236.718 60.796 M175.854 65.456 C 176.931 68.093,177.738 70.324,177.646 70.415 C 177.343 70.716,164.794 75.820,164.668 75.694 C 164.567 75.592,170.270 61.497,170.499 61.282 C 170.619 61.169,172.845 60.709,173.385 60.685 C 173.814 60.667,174.212 61.437,175.854 65.456 M213.977 69.517 C 218.958 71.577,223.125 73.346,223.239 73.447 C 223.424 73.612,204.699 119.126,204.262 119.573 C 204.161 119.676,200.407 110.866,195.918 99.995 C 191.430 89.125,187.154 78.772,186.416 76.989 L 185.073 73.748 194.584 69.778 C 199.815 67.595,204.281 65.801,204.508 65.790 C 204.735 65.780,208.996 67.457,213.977 69.517 M189.633 98.889 C 194.854 111.535,199.092 121.966,199.051 122.068 C 198.943 122.337,153.301 103.315,153.297 102.999 C 153.293 102.562,160.991 84.092,161.313 83.767 C 161.576 83.502,179.959 75.758,180.089 75.857 C 180.117 75.879,184.412 86.243,189.633 98.889 M238.291 79.609 C 243.411 81.730,247.737 83.602,247.903 83.767 C 248.303 84.168,255.709 102.098,255.604 102.413 C 255.516 102.677,209.857 121.613,209.577 121.501 C 209.302 121.391,228.367 75.752,228.688 75.752 C 228.849 75.752,233.171 77.487,238.291 79.609 M152.363 89.763 C 151.727 91.276,150.439 94.385,149.500 96.672 C 148.561 98.959,147.700 100.830,147.586 100.831 C 146.468 100.837,137.920 96.843,138.046 96.373 C 138.124 96.080,138.318 95.188,138.478 94.389 L 138.767 92.936 143.280 91.075 C 145.762 90.052,148.944 88.727,150.352 88.131 C 151.759 87.535,153.048 87.039,153.215 87.030 C 153.393 87.019,153.038 88.157,152.363 89.763 M262.980 89.856 C 266.767 91.420,269.998 92.752,270.160 92.816 C 270.433 92.925,271.196 96.163,270.984 96.318 C 270.791 96.460,261.919 100.040,261.576 100.114 C 261.330 100.168,260.374 98.164,258.472 93.602 C 256.960 89.978,255.807 87.012,255.909 87.012 C 256.011 87.012,259.193 88.292,262.980 89.856 M274.152 102.900 C 274.680 103.752,275.112 104.585,275.112 104.750 C 275.112 105.078,269.500 118.756,269.241 119.061 C 269.153 119.164,267.789 116.122,266.211 112.301 C 264.632 108.480,263.375 105.318,263.417 105.276 C 263.579 105.114,272.693 101.360,272.937 101.355 C 273.077 101.352,273.624 102.047,274.152 102.900 M140.755 103.873 C 143.966 105.234,145.466 105.994,145.416 106.235 C 145.219 107.193,140.113 119.227,139.974 119.063 C 139.709 118.752,134.101 105.055,134.101 104.719 C 134.101 104.383,135.683 101.864,135.893 101.866 C 135.963 101.867,138.151 102.770,140.755 103.873 M262.028 117.482 C 264.157 122.629,265.898 126.947,265.896 127.079 C 265.890 127.686,258.214 145.745,257.962 145.745 C 257.569 145.745,211.917 126.840,211.908 126.673 C 211.890 126.350,257.846 107.574,257.998 107.842 C 258.086 107.998,259.900 112.336,262.028 117.482 M174.593 117.927 C 187.081 123.093,197.302 127.380,197.306 127.453 C 197.310 127.527,188.474 131.238,177.671 135.700 C 166.868 140.163,156.521 144.438,154.677 145.200 L 151.324 146.587 147.319 136.936 C 145.116 131.627,143.314 127.185,143.314 127.064 C 143.314 126.877,150.024 110.557,150.812 108.828 C 150.989 108.440,151.223 108.286,151.485 108.384 C 151.706 108.466,162.105 112.761,174.593 117.927 M133.253 118.251 L 136.902 127.060 133.300 135.763 C 129.144 145.804,129.547 145.122,128.269 144.276 C 123.388 141.046,116.279 139.552,110.621 140.566 L 109.533 140.761 109.533 127.037 L 109.533 113.312 110.109 113.487 C 114.683 114.873,123.292 113.220,127.959 110.059 C 129.538 108.990,129.198 108.463,133.253 118.251 M281.722 110.335 C 286.299 113.226,293.152 114.536,298.592 113.561 L 299.680 113.366 299.680 127.065 L 299.680 140.765 298.976 140.611 C 298.589 140.526,298.111 140.405,297.913 140.343 C 294.224 139.175,285.381 141.168,281.039 144.144 C 280.428 144.563,279.839 144.807,279.729 144.686 C 279.359 144.276,272.450 127.371,272.485 126.960 C 272.504 126.735,273.978 123.039,275.761 118.746 C 277.544 114.453,279.158 110.566,279.348 110.109 C 279.778 109.071,279.710 109.064,281.722 110.335 M236.276 142.674 C 247.079 147.154,255.918 150.941,255.918 151.088 C 255.918 151.539,248.224 170.037,247.902 170.359 C 247.359 170.904,229.286 178.206,229.075 177.966 C 228.851 177.712,210.380 133.063,210.176 132.283 C 210.069 131.874,210.553 132.009,213.342 133.164 C 215.153 133.915,225.473 138.194,236.276 142.674 M190.347 155.426 C 185.111 168.048,180.693 178.375,180.532 178.375 C 180.066 178.375,161.647 170.692,161.310 170.358 C 160.532 169.584,153.446 151.673,153.823 151.435 C 154.303 151.132,199.723 132.355,199.806 132.425 C 199.841 132.454,195.584 142.804,190.347 155.426 M214.331 156.558 C 219.373 168.768,223.645 179.111,223.824 179.541 L 224.150 180.324 214.395 184.366 L 204.639 188.407 202.959 187.719 C 188.883 181.954,185.778 180.583,185.918 180.192 C 186.622 178.235,204.898 134.371,205.012 134.365 C 205.095 134.360,209.288 144.347,214.331 156.558 M142.925 141.624 C 144.431 145.269,145.715 148.389,145.780 148.558 C 145.887 148.837,136.232 153.006,136.065 152.752 C 133.660 149.082,133.563 150.396,136.816 142.560 C 138.309 138.963,139.637 135.745,139.766 135.409 C 140.075 134.606,139.818 134.099,142.925 141.624 M272.264 142.163 C 275.527 150.068,275.353 149.322,274.300 150.915 C 273.853 151.591,273.468 152.174,273.443 152.211 C 273.279 152.461,263.735 148.181,263.798 147.886 C 264.010 146.895,269.105 134.905,269.247 135.065 C 269.338 135.168,270.695 138.362,272.264 142.163 M266.572 155.259 C 270.840 157.028,271.296 157.275,271.167 157.754 C 271.089 158.046,270.896 158.930,270.739 159.718 L 270.454 161.152 263.250 164.134 C 259.288 165.775,255.974 167.116,255.887 167.116 C 255.650 167.114,261.386 153.306,261.627 153.300 C 261.741 153.297,263.966 154.179,266.572 155.259 M150.819 160.653 C 152.288 164.207,153.418 167.115,153.329 167.116 C 153.240 167.117,149.933 165.774,145.980 164.131 L 138.793 161.144 138.477 159.617 C 138.304 158.777,138.256 157.996,138.371 157.882 C 138.773 157.483,147.794 153.856,147.970 154.022 C 148.067 154.115,149.349 157.099,150.819 160.653 M147.923 171.286 L 156.732 174.947 160.387 183.762 C 162.397 188.611,164.042 192.652,164.043 192.743 C 164.043 192.833,163.234 193.090,162.244 193.313 C 156.699 194.565,150.973 198.296,148.023 202.580 L 147.051 203.991 137.383 194.325 C 132.065 189.009,127.798 184.592,127.901 184.510 C 128.003 184.429,128.733 183.877,129.523 183.284 C 133.875 180.017,137.114 174.929,138.364 169.393 C 138.851 167.235,137.554 166.978,147.923 171.286 M270.643 168.330 C 271.426 172.063,272.391 174.536,274.106 177.206 C 275.628 179.576,278.190 182.316,280.138 183.657 C 280.892 184.177,281.510 184.612,281.510 184.625 C 281.510 184.637,277.157 189.000,271.836 194.319 L 262.162 203.991 261.172 202.554 C 258.224 198.274,252.518 194.502,247.153 193.288 C 246.062 193.041,245.170 192.775,245.170 192.697 C 245.170 192.619,246.818 188.592,248.833 183.747 L 252.497 174.939 261.181 171.311 C 270.975 167.219,270.445 167.386,270.643 168.330 M174.212 182.169 C 176.497 183.108,178.368 183.963,178.371 184.067 C 178.387 184.790,174.381 193.725,174.090 193.614 C 173.904 193.542,173.022 193.349,172.130 193.185 L 170.508 192.886 167.531 185.694 C 165.893 181.739,164.554 178.424,164.554 178.327 C 164.555 178.230,165.793 178.670,167.306 179.306 C 168.820 179.941,171.927 181.229,174.212 182.169 M241.727 185.623 L 238.721 192.881 237.155 193.173 C 236.293 193.333,235.507 193.380,235.407 193.277 C 235.215 193.078,231.700 184.634,231.560 184.035 C 231.484 183.709,244.352 178.041,244.631 178.278 C 244.687 178.326,243.380 181.631,241.727 185.623 M228.372 190.538 C 230.688 196.156,230.653 195.417,228.667 196.699 L 227.041 197.749 219.876 194.780 C 215.935 193.147,212.648 191.749,212.573 191.673 C 212.458 191.558,225.784 185.850,226.261 185.810 C 226.347 185.802,227.297 187.930,228.372 190.538 M190.462 188.893 C 193.943 190.349,196.707 191.614,196.604 191.704 C 196.326 191.950,182.526 197.569,182.201 197.569 C 181.985 197.569,180.760 196.824,179.457 195.901 C 179.147 195.681,183.491 185.996,183.839 186.133 C 184.001 186.196,186.981 187.438,190.462 188.893 M213.636 198.498 C 221.769 201.873,222.630 202.286,222.309 202.658 C 218.965 206.539,216.530 217.731,218.168 221.689 C 218.343 222.112,217.598 222.137,204.604 222.137 L 190.855 222.137 191.032 221.561 C 192.360 217.243,190.895 208.991,187.953 204.220 C 187.007 202.686,186.845 202.263,187.132 202.082 C 187.448 201.882,204.157 194.847,204.479 194.778 C 204.549 194.763,208.670 196.437,213.636 198.498 " stroke="none" fill="#fbfbfb" fill-rule="evenodd"></path><path id="path1" d="M196.417 0.171 C 185.912 1.038,178.502 2.320,170.184 4.712 C 103.401 23.916,64.347 91.683,81.387 158.797 C 101.225 236.934,188.013 277.332,260.397 242.122 C 335.425 205.626,355.869 109.272,302.215 45.027 C 276.790 14.583,235.240 -3.034,196.417 0.171 M173.257 13.839 C 179.205 15.321,184.858 19.432,187.920 24.504 L 188.731 25.848 204.602 25.841 L 220.473 25.835 221.618 24.033 C 226.524 16.310,236.641 11.835,245.587 13.431 C 259.280 15.873,268.291 28.896,265.424 42.099 L 264.924 44.402 276.054 55.557 L 287.184 66.712 289.529 66.217 C 301.934 63.600,314.602 71.486,317.717 83.765 C 320.311 93.991,316.093 104.802,307.420 110.155 L 305.822 111.141 305.822 127.059 L 305.822 142.976 306.492 143.281 C 311.907 145.748,317.167 153.586,318.272 160.835 C 320.797 177.397,304.545 192.177,288.676 187.752 L 287.268 187.360 276.117 198.496 L 264.966 209.632 265.457 211.854 C 267.908 222.946,261.529 234.862,250.825 239.185 C 239.943 243.580,227.263 239.508,221.334 229.715 L 220.473 228.293 204.607 228.293 L 188.740 228.293 187.883 229.708 C 177.823 246.327,152.462 243.973,144.915 225.720 C 143.277 221.757,142.799 214.818,143.899 210.972 L 144.275 209.660 133.110 198.501 L 121.945 187.343 120.409 187.784 C 114.422 189.505,105.304 187.489,100.003 183.273 C 86.795 172.768,87.803 152.358,101.954 143.791 L 103.376 142.930 103.377 127.063 L 103.378 111.196 101.548 110.045 C 90.494 103.088,87.374 87.315,94.866 76.262 C 100.329 68.202,110.929 63.983,120.067 66.231 L 122.028 66.714 133.169 55.558 L 144.310 44.402 143.889 42.994 C 143.139 40.488,143.295 33.465,144.163 30.634 C 148.027 18.046,160.723 10.717,173.257 13.839 M191.350 33.589 C 192.119 39.597,190.848 45.417,187.650 50.533 L 186.857 51.801 195.706 55.472 C 200.748 57.563,204.731 59.077,204.965 58.990 C 205.190 58.906,209.195 57.267,213.864 55.347 L 222.353 51.858 221.639 50.817 C 218.283 45.923,216.855 38.954,217.952 32.821 L 218.100 31.990 204.623 31.990 L 191.145 31.990 191.350 33.589 M137.500 59.946 L 127.974 69.482 130.007 71.073 C 134.178 74.339,137.422 79.639,138.535 85.005 L 138.836 86.452 147.409 82.907 C 152.124 80.957,156.139 79.267,156.331 79.151 C 156.522 79.035,158.323 74.969,160.333 70.116 L 163.987 61.292 162.865 61.122 C 157.326 60.280,151.381 56.398,147.537 51.114 L 147.025 50.411 137.500 59.946 M260.596 52.464 C 257.279 56.702,251.523 60.161,246.199 61.118 L 245.226 61.292 248.855 70.055 C 250.850 74.874,252.594 78.918,252.729 79.040 C 253.048 79.330,269.775 86.248,270.151 86.246 C 270.308 86.245,270.505 85.737,270.590 85.118 C 271.240 80.378,275.136 74.073,279.389 70.877 C 280.204 70.265,280.954 69.698,281.056 69.616 C 281.159 69.535,276.955 65.184,271.715 59.949 L 262.188 50.431 260.596 52.464 M180.617 57.540 C 179.809 58.055,179.146 58.605,179.145 58.762 C 179.143 59.012,182.679 67.795,182.881 68.042 C 182.925 68.095,186.007 66.886,189.731 65.355 C 195.706 62.899,196.436 62.538,195.947 62.280 C 195.264 61.920,182.278 56.549,182.166 56.580 C 182.122 56.593,181.425 57.024,180.617 57.540 M219.882 59.482 C 216.037 61.081,212.852 62.431,212.804 62.481 C 212.693 62.596,224.901 67.622,225.386 67.661 C 225.688 67.686,229.559 59.053,229.559 58.356 C 229.559 58.208,227.096 56.537,226.918 56.565 C 226.893 56.569,223.726 57.882,219.882 59.482 M171.989 61.019 L 170.594 61.315 167.608 68.523 L 164.622 75.731 165.420 75.403 C 174.911 71.505,177.257 70.523,177.428 70.375 C 177.645 70.187,173.810 60.628,173.542 60.688 C 173.455 60.707,172.757 60.856,171.989 61.019 M234.225 61.996 C 233.937 62.735,233.071 64.855,232.301 66.707 L 230.899 70.074 236.947 72.574 C 240.273 73.948,243.360 75.224,243.807 75.408 L 244.620 75.743 243.580 73.252 C 243.007 71.882,241.660 68.639,240.585 66.046 L 238.631 61.330 237.102 61.008 C 234.783 60.519,234.803 60.512,234.225 61.996 M194.939 69.789 C 189.621 71.990,185.303 73.884,185.342 73.998 C 186.104 76.221,204.143 119.429,204.258 119.305 C 204.347 119.209,208.361 109.629,213.176 98.017 C 217.991 86.404,222.250 76.151,222.639 75.230 L 223.347 73.558 214.130 69.728 C 209.060 67.622,204.844 65.874,204.760 65.843 C 204.675 65.812,200.256 67.587,194.939 69.789 M228.375 76.127 C 228.293 76.340,224.048 86.563,218.942 98.846 C 213.836 111.128,209.700 121.223,209.751 121.279 C 209.819 121.354,255.186 102.764,255.600 102.493 C 255.636 102.469,253.919 98.239,251.785 93.093 L 247.905 83.736 239.052 80.081 C 234.182 78.071,229.821 76.272,229.361 76.083 C 228.637 75.786,228.503 75.792,228.375 76.127 M170.547 79.890 L 161.311 83.734 157.321 93.370 C 154.089 101.179,153.402 103.046,153.702 103.214 C 154.334 103.568,198.926 122.082,198.977 122.012 C 199.066 121.889,180.045 76.007,179.913 76.027 C 179.841 76.037,175.626 77.775,170.547 79.890 M145.763 90.168 L 138.871 93.026 138.497 94.933 C 138.289 95.990,138.224 96.879,138.351 96.926 C 138.477 96.973,140.595 97.855,143.058 98.886 C 146.346 100.262,147.587 100.676,147.724 100.443 C 147.827 100.268,149.075 97.321,150.497 93.893 C 151.919 90.465,153.137 87.572,153.204 87.464 C 153.473 87.028,152.364 87.431,145.763 90.168 M258.399 93.090 C 259.733 96.292,260.931 99.183,261.062 99.514 C 261.231 99.942,261.428 100.068,261.744 99.951 C 261.988 99.860,264.158 98.976,266.567 97.985 L 270.945 96.184 270.626 94.655 C 270.451 93.815,270.261 93.081,270.205 93.024 C 270.057 92.876,256.367 87.268,256.153 87.268 C 256.054 87.268,257.065 89.888,258.399 93.090 M268.458 103.272 C 265.995 104.313,263.869 105.205,263.735 105.255 C 263.600 105.305,264.751 108.407,266.294 112.148 C 267.988 116.259,269.173 118.820,269.287 118.620 C 269.391 118.438,270.749 115.220,272.304 111.469 L 275.132 104.650 274.062 102.997 C 273.474 102.087,272.981 101.352,272.965 101.362 C 272.949 101.373,270.921 102.232,268.458 103.272 M134.933 103.392 L 134.101 104.664 137.083 111.854 L 140.065 119.043 142.737 112.598 C 144.207 109.053,145.313 106.064,145.194 105.957 C 144.921 105.712,136.287 102.110,135.987 102.116 C 135.865 102.118,135.390 102.693,134.933 103.392 M234.886 117.165 C 222.404 122.328,212.269 126.628,212.365 126.720 C 212.589 126.937,257.644 145.617,257.943 145.617 C 258.066 145.617,258.223 145.473,258.292 145.298 C 258.361 145.122,260.062 141.012,262.073 136.166 C 264.083 131.320,265.728 127.226,265.728 127.068 C 265.728 126.660,257.874 107.738,257.714 107.760 C 257.641 107.771,247.369 112.003,234.886 117.165 M147.275 117.646 C 145.191 122.672,143.485 126.904,143.485 127.051 C 143.485 127.564,151.377 146.385,151.565 146.321 C 153.663 145.615,196.971 127.525,196.848 127.406 C 196.627 127.193,151.577 108.509,151.283 108.509 C 151.164 108.509,149.360 112.621,147.275 117.646 M128.204 110.069 C 123.246 113.424,116.613 114.794,110.493 113.728 L 109.533 113.561 109.533 127.037 L 109.533 140.513 111.260 140.314 C 117.551 139.589,123.541 140.972,128.609 144.318 L 129.388 144.832 133.024 136.060 C 135.024 131.236,136.660 127.188,136.660 127.066 C 136.660 126.875,129.534 109.501,129.394 109.351 C 129.367 109.321,128.831 109.644,128.204 110.069 M276.169 118.132 C 274.046 123.269,272.577 127.156,272.665 127.404 C 272.748 127.639,274.391 131.644,276.316 136.303 L 279.817 144.776 281.540 143.661 C 286.074 140.728,292.925 139.377,298.464 140.323 L 299.680 140.530 299.680 127.046 L 299.680 113.561 298.720 113.730 C 292.457 114.834,286.167 113.449,280.475 109.715 L 279.824 109.287 276.169 118.132 M210.197 132.246 C 210.303 132.418,228.618 176.622,229.011 177.654 C 229.152 178.025,230.487 177.545,238.544 174.231 L 247.914 170.377 251.894 160.748 C 254.083 155.453,255.797 151.045,255.704 150.954 C 255.247 150.508,209.984 131.900,210.197 132.246 M176.711 142.053 C 164.184 147.238,153.851 151.514,153.748 151.556 C 153.646 151.597,155.304 155.849,157.433 161.005 L 161.304 170.378 170.671 174.243 C 175.823 176.368,180.190 178.139,180.376 178.177 C 180.662 178.236,199.780 132.876,199.551 132.680 C 199.516 132.651,189.239 136.868,176.711 142.053 M204.915 134.788 C 204.637 135.247,186.052 180.136,186.052 180.349 C 186.052 180.570,204.083 188.175,204.607 188.175 C 204.820 188.175,223.640 180.469,223.879 180.283 C 223.949 180.229,205.287 134.859,205.113 134.660 C 205.074 134.615,204.985 134.673,204.915 134.788 M137.084 142.259 L 134.104 149.436 135.062 150.970 C 135.589 151.814,136.136 152.509,136.276 152.516 C 136.681 152.535,145.617 148.853,145.617 148.667 C 145.617 148.575,144.368 145.480,142.841 141.791 L 140.065 135.082 137.084 142.259 M266.456 141.576 C 265.003 145.101,263.909 148.070,264.025 148.174 C 264.341 148.458,273.318 152.106,273.412 151.989 C 273.457 151.933,273.861 151.344,274.310 150.679 L 275.127 149.470 272.403 142.873 C 270.904 139.245,269.548 136.027,269.388 135.721 C 269.132 135.232,268.788 135.918,266.456 141.576 M258.796 160.035 C 257.259 163.718,256.038 166.776,256.082 166.831 C 256.147 166.913,269.931 161.308,270.203 161.089 C 270.325 160.990,270.998 158.090,271.008 157.617 C 271.014 157.353,270.534 157.016,269.674 156.681 C 268.935 156.393,266.814 155.523,264.961 154.748 L 261.591 153.339 258.796 160.035 M142.913 156.012 L 138.289 157.933 138.607 159.476 C 138.782 160.325,138.962 161.048,139.008 161.083 C 139.302 161.307,153.072 166.908,153.136 166.829 C 153.277 166.656,148.010 154.220,147.769 154.154 C 147.641 154.120,145.456 154.955,142.913 156.012 M261.618 171.304 C 256.804 173.297,252.763 175.041,252.639 175.180 C 252.123 175.753,245.370 192.495,245.581 192.676 C 245.706 192.784,246.687 193.072,247.759 193.315 C 252.675 194.431,258.173 198.168,261.284 202.506 L 262.163 203.733 271.716 194.189 C 281.093 184.820,281.258 184.638,280.692 184.261 C 275.893 181.066,271.859 175.041,270.709 169.350 L 270.372 167.681 261.618 171.304 M138.586 169.082 C 137.883 173.771,134.197 179.773,130.007 183.053 L 127.974 184.645 137.500 194.185 C 146.850 203.550,147.032 203.715,147.409 203.149 C 150.581 198.384,156.672 194.300,162.289 193.170 L 163.988 192.828 160.365 184.075 C 158.373 179.261,156.629 175.218,156.490 175.091 C 156.166 174.794,139.443 167.877,139.057 167.880 C 138.897 167.881,138.685 168.422,138.586 169.082 M164.875 178.827 C 164.997 179.272,170.457 192.506,170.583 192.661 C 170.685 192.787,174.325 193.518,174.395 193.426 C 174.429 193.382,174.812 192.482,175.246 191.427 C 175.680 190.371,176.551 188.279,177.180 186.778 L 178.325 184.048 174.319 182.381 C 172.116 181.464,169.063 180.189,167.534 179.548 C 165.294 178.609,164.777 178.469,164.875 178.827 M238.004 181.084 C 234.131 182.707,231.744 183.841,231.760 184.050 C 231.775 184.236,232.623 186.415,233.644 188.891 L 235.501 193.392 237.071 193.030 C 237.934 192.831,238.656 192.647,238.676 192.623 C 238.876 192.379,244.394 178.745,244.342 178.622 C 244.305 178.531,241.452 179.639,238.004 181.084 M219.247 188.840 L 212.645 191.610 213.872 192.135 C 214.547 192.423,217.770 193.764,221.035 195.113 L 226.970 197.567 228.616 196.518 L 230.263 195.468 228.863 192.104 C 228.093 190.253,227.227 188.135,226.939 187.396 C 226.287 185.719,227.005 185.585,219.247 188.840 M183.097 187.268 C 179.086 196.807,179.342 195.695,180.919 196.726 L 182.174 197.547 188.965 194.762 C 192.699 193.230,195.924 191.882,196.131 191.766 C 196.451 191.586,184.398 186.297,183.689 186.306 C 183.585 186.307,183.319 186.740,183.097 187.268 M195.502 198.652 L 186.909 202.242 188.136 204.283 C 190.982 209.018,192.175 215.044,191.354 220.537 L 191.153 221.881 204.628 221.881 L 218.102 221.881 217.943 221.305 C 216.713 216.859,218.159 209.085,221.104 204.316 C 221.787 203.209,222.328 202.285,222.306 202.263 C 222.067 202.027,204.787 195.016,204.493 195.036 C 204.274 195.051,200.228 196.678,195.502 198.652 M299.926 217.257 C 276.863 240.713,246.116 255.258,212.156 258.775 C 207.832 259.222,190.990 259.231,187.204 258.787 C 167.200 256.443,152.963 252.183,134.898 243.137 C 130.207 240.788,130.062 240.768,131.447 242.659 C 137.205 250.522,144.307 254.713,162.353 260.896 C 176.763 265.833,178.196 266.864,176.843 271.319 C 175.389 276.105,173.763 278.288,165.721 286.244 C 152.537 299.289,151.407 302.854,154.608 321.325 C 156.186 330.431,156.170 334.120,154.519 342.290 C 152.571 351.931,152.350 356.490,153.441 364.555 C 154.096 369.396,153.572 373.375,152.233 373.725 C 151.650 373.877,147.310 373.581,143.309 373.115 C 137.724 372.466,133.226 373.125,127.437 375.440 C 117.619 379.367,114.638 379.457,108.765 376.002 C 100.053 370.877,98.078 371.165,90.291 378.695 C 85.219 383.600,83.068 385.251,78.501 387.745 C 70.799 391.951,69.866 392.695,69.866 394.631 C 69.866 398.275,72.551 399.611,77.328 398.341 C 94.918 393.668,118.483 392.980,147.665 396.288 C 167.158 398.498,167.954 398.318,173.058 390.545 C 181.611 377.518,186.138 362.919,187.466 344.082 C 188.488 329.586,189.811 328.346,200.640 331.737 C 207.961 334.030,211.365 334.203,222.265 332.838 C 225.080 332.486,228.650 332.123,230.198 332.032 L 233.013 331.868 233.726 332.984 C 234.721 334.544,235.145 336.141,235.585 339.987 C 236.274 346.003,236.467 346.613,238.805 350.155 C 245.628 360.493,247.222 370.308,244.115 382.853 C 243.014 387.295,242.851 392.774,243.782 394.021 C 245.139 395.839,247.642 396.245,253.743 395.637 C 257.819 395.231,264.294 395.336,269.842 395.900 C 288.492 397.794,298.509 394.512,295.345 387.544 C 294.506 385.696,293.514 385.388,286.871 384.915 C 278.924 384.349,274.443 382.015,267.383 374.762 C 262.155 369.390,261.120 366.699,260.153 355.951 C 258.674 339.522,258.298 328.582,258.988 322.073 C 259.858 313.876,259.451 311.538,256.618 308.466 C 253.381 304.954,243.120 302.087,227.895 300.442 C 218.116 299.385,218.816 299.619,221.253 298.224 C 222.373 297.583,225.419 295.763,228.023 294.179 C 238.592 287.750,243.383 285.595,249.904 284.337 C 254.733 283.405,255.436 283.654,258.412 287.354 C 262.096 291.934,262.353 291.981,268.045 289.093 L 272.266 286.952 274.009 287.931 C 276.240 289.184,276.134 289.208,277.015 287.237 C 277.428 286.312,278.303 284.847,278.959 283.981 C 280.904 281.412,282.391 280.144,288.615 275.748 C 288.934 275.522,289.528 274.679,289.935 273.873 C 294.621 264.590,290.942 251.770,281.919 245.934 L 280.283 244.877 281.984 243.309 C 294.742 231.553,301.209 223.905,305.330 215.698 L 306.571 213.226 306.005 212.865 C 305.693 212.666,305.318 212.433,305.172 212.348 C 305.025 212.262,302.665 214.471,299.926 217.257 " stroke="none" fill="#04044c" fill-rule="evenodd"></path><path id="path2" d="M242.930 13.228 C 243.177 13.293,243.580 13.293,243.826 13.228 C 244.072 13.164,243.871 13.111,243.378 13.111 C 242.885 13.111,242.684 13.164,242.930 13.228 M184.261 20.090 C 184.739 20.582,185.187 20.985,185.257 20.985 C 185.328 20.985,184.994 20.582,184.517 20.090 C 184.039 19.597,183.591 19.194,183.521 19.194 C 183.450 19.194,183.784 19.597,184.261 20.090 M196.755 26.040 C 201.164 26.079,208.304 26.079,212.622 26.040 C 216.940 26.000,213.333 25.968,204.607 25.968 C 195.880 25.968,192.347 26.000,196.755 26.040 M137.299 59.949 L 127.831 69.482 137.364 60.014 C 146.224 51.215,147.012 50.416,146.832 50.416 C 146.796 50.416,142.506 54.706,137.299 59.949 M271.657 59.885 C 276.864 65.093,281.181 69.354,281.251 69.354 C 281.322 69.354,277.119 65.093,271.913 59.885 C 266.706 54.677,262.389 50.416,262.319 50.416 C 262.248 50.416,266.451 54.677,271.657 59.885 M131.787 72.745 C 132.415 73.413,132.962 73.960,133.003 73.960 C 133.195 73.960,132.992 73.731,131.862 72.670 L 130.646 71.529 131.787 72.745 M90.668 89.187 C 90.670 89.891,90.720 90.149,90.779 89.760 C 90.837 89.371,90.836 88.795,90.775 88.480 C 90.714 88.165,90.666 88.484,90.668 89.187 M97.249 106.542 C 97.249 106.586,97.623 106.960,98.081 107.374 L 98.912 108.125 98.161 107.294 C 97.460 106.518,97.249 106.344,97.249 106.542 M103.511 127.063 C 103.511 135.790,103.543 139.397,103.583 135.079 C 103.622 130.761,103.622 123.621,103.583 119.212 C 103.543 114.804,103.511 118.337,103.511 127.063 M305.687 127.063 C 305.687 135.790,305.719 139.397,305.758 135.079 C 305.797 130.761,305.797 123.621,305.758 119.212 C 305.719 114.804,305.687 118.337,305.687 127.063 M311.068 146.897 C 311.618 147.460,312.126 147.921,312.196 147.921 C 312.266 147.921,311.874 147.460,311.324 146.897 C 310.775 146.334,310.267 145.873,310.197 145.873 C 310.126 145.873,310.519 146.334,311.068 146.897 M318.446 164.171 C 318.447 165.157,318.493 165.528,318.549 164.997 C 318.604 164.467,318.603 163.660,318.547 163.206 C 318.490 162.752,318.445 163.186,318.446 164.171 M131.798 181.318 C 131.176 181.951,130.725 182.470,130.796 182.470 C 130.866 182.470,131.432 181.951,132.054 181.318 C 132.675 180.685,133.126 180.166,133.056 180.166 C 132.986 180.166,132.419 180.685,131.798 181.318 M137.300 194.242 C 142.507 199.450,146.824 203.711,146.894 203.711 C 146.965 203.711,142.762 199.450,137.556 194.242 C 132.349 189.034,128.032 184.773,127.962 184.773 C 127.891 184.773,132.094 189.034,137.300 194.242 M271.656 194.306 L 262.188 203.839 271.721 194.371 C 280.581 185.572,281.369 184.773,281.189 184.773 C 281.153 184.773,276.863 189.063,271.656 194.306 M197.907 222.073 C 201.682 222.113,207.785 222.113,211.470 222.073 C 215.155 222.033,212.067 222.000,204.607 222.000 C 197.147 222.000,194.132 222.033,197.907 222.073 M196.755 228.215 C 201.164 228.254,208.304 228.254,212.622 228.215 C 216.940 228.175,213.333 228.143,204.607 228.143 C 195.880 228.143,192.347 228.176,196.755 228.215 M184.377 233.973 L 183.365 235.061 184.453 234.049 C 185.464 233.108,185.658 232.885,185.465 232.885 C 185.423 232.885,184.933 233.375,184.377 233.973 " stroke="none" fill="#575286" fill-rule="evenodd"></path><path id="path3" d="M149.968 54.079 C 149.968 54.123,150.342 54.497,150.800 54.911 L 151.631 55.662 150.880 54.830 C 150.179 54.055,149.968 53.881,149.968 54.079 M318.421 89.827 C 318.421 90.320,318.474 90.521,318.539 90.275 C 318.603 90.029,318.603 89.626,318.539 89.379 C 318.474 89.133,318.421 89.335,318.421 89.827 " stroke="none" fill="#7c7ca4" fill-rule="evenodd"></path><path id="path4" d="M258.733 20.345 C 259.211 20.838,259.659 21.241,259.729 21.241 C 259.800 21.241,259.467 20.838,258.989 20.345 C 258.512 19.853,258.063 19.450,257.993 19.450 C 257.923 19.450,258.256 19.853,258.733 20.345 M217.607 37.364 C 217.607 38.138,217.655 38.455,217.714 38.068 C 217.772 37.681,217.772 37.047,217.714 36.660 C 217.655 36.273,217.607 36.590,217.607 37.364 M311.324 72.937 C 311.874 73.500,312.382 73.960,312.452 73.960 C 312.522 73.960,312.130 73.500,311.580 72.937 C 311.031 72.374,310.523 71.913,310.453 71.913 C 310.382 71.913,310.775 72.374,311.324 72.937 M113.948 114.060 C 114.194 114.124,114.597 114.124,114.843 114.060 C 115.090 113.996,114.888 113.943,114.395 113.943 C 113.903 113.943,113.701 113.996,113.948 114.060 M294.626 114.060 C 294.872 114.124,295.275 114.124,295.521 114.060 C 295.768 113.996,295.566 113.943,295.074 113.943 C 294.581 113.943,294.379 113.996,294.626 114.060 M292.709 140.168 C 293.028 140.229,293.488 140.227,293.733 140.163 C 293.978 140.099,293.717 140.049,293.154 140.052 C 292.591 140.055,292.391 140.107,292.709 140.168 M90.674 164.171 C 90.676 165.016,90.724 165.331,90.780 164.871 C 90.837 164.411,90.836 163.720,90.778 163.335 C 90.719 162.951,90.673 163.327,90.674 164.171 M311.183 181.382 L 310.301 182.342 311.260 181.460 C 312.154 180.639,312.338 180.422,312.142 180.422 C 312.100 180.422,311.668 180.854,311.183 181.382 M133.077 198.464 C 139.199 204.587,144.265 209.597,144.336 209.597 C 144.406 209.597,139.455 204.587,133.333 198.464 C 127.212 192.342,122.146 187.332,122.075 187.332 C 122.005 187.332,126.956 192.342,133.077 198.464 M275.879 198.528 L 264.747 209.725 275.944 198.594 C 282.102 192.471,287.140 187.433,287.140 187.397 C 287.140 187.217,286.225 188.122,275.879 198.528 M217.604 216.891 C 217.606 217.594,217.655 217.852,217.714 217.463 C 217.773 217.074,217.771 216.498,217.711 216.183 C 217.650 215.869,217.602 216.187,217.604 216.891 " stroke="none" fill="#847ca4" fill-rule="evenodd"></path></g></svg>